PathFileType	4	(X/Y/Z)	D:\MotionData\NordSprintingStudy\Test 2\Edited\COP_Left_Board_FP2000002.trc
DataRate	CameraRate	NumFrames	NumMarkers	Units	OrigDataRate	OrigDataStartFrame	OrigNumFrames
200.00	200.00	     42	5	mm	200.00	9523	     12696
Frame#	Time	M1			M2			M3			M4			M5			
		X1	Y1	Z1	X2	Y2	Z2	X3	Y3	Z3	X4	Y4	Z4	X5	Y5	Z5	

9523	47.610	1522.33923	1935.59534	89.23572	1493.03174	2252.83887	54.87959	1291.23376	2235.35913	58.91512	894.42633	2200.45068	68.56653	924.74426	1882.49500	103.66382	
9524	47.615	1522.13342	1935.29236	89.14415	1493.32104	2252.56787	54.58310	1291.40100	2235.35474	58.67559	894.60193	2200.91187	68.42481	924.46649	1882.91919	103.68780	
9525	47.620	1522.00940	1935.03845	88.85030	1493.40869	2252.41138	54.36983	1291.57202	2235.38550	58.41334	894.81677	2201.39624	68.29419	924.27417	1883.37695	103.59435	
9526	47.625	1521.69739	1934.75696	88.84187	1493.54883	2252.18848	54.19863	1291.84827	2235.36646	58.18384	895.05530	2201.87866	68.19038	923.95129	1883.78833	103.67739	
9527	47.630	1521.54102	1934.43433	88.65158	1493.55469	2251.93213	54.21333	1292.11902	2235.41064	57.87920	895.26337	2202.38330	68.06386	923.74768	1884.22632	103.64816	
9528	47.635	1521.35413	1934.13342	88.46892	1493.78003	2251.62061	53.96937	1292.39392	2235.44019	57.64566	895.50403	2202.88574	67.93700	923.45947	1884.62219	103.66967	
9529	47.640	1521.20374	1933.78247	88.33621	1493.93494	2251.30737	54.01114	1292.66223	2235.47266	57.37519	895.77472	2203.43774	67.79401	923.20428	1885.08142	103.71288	
9530	47.645	1520.96716	1933.44348	88.06802	1494.21741	2251.04248	53.76464	1292.90430	2235.52979	57.14518	896.00592	2203.95093	67.69234	922.93506	1885.53540	103.76842	
9531	47.650	1520.64453	1932.96851	88.28043	1494.44849	2250.78857	53.63290	1293.17688	2235.56958	56.86867	896.23395	2204.46997	67.55580	922.68658	1886.12036	103.77489	
9532	47.655	1520.44373	1932.69922	88.10631	1494.75134	2250.55737	53.36283	1293.47217	2235.56689	56.53703	896.44708	2205.02319	67.41197	922.38123	1886.63184	103.86946	
9533	47.660	1520.36401	1932.64795	87.55539	1494.90686	2250.30908	53.20828	1293.77722	2235.63525	56.20109	896.62604	2205.61279	67.24561	922.24298	1887.16455	103.82508	
9534	47.665	1520.12842	1932.27368	87.57910	1495.32446	2249.96802	52.67180	1294.05652	2235.63940	55.95782	896.83203	2206.19116	67.11773	921.99927	1887.67175	103.83382	
9535	47.670	1520.03699	1932.02588	87.32403	1495.68665	2249.64600	52.39964	1294.30457	2235.67969	55.59964	897.05353	2206.75415	66.92242	921.85779	1888.21936	103.72050	
9536	47.675	1519.92932	1931.82446	86.98890	1495.96777	2249.39575	51.97378	1294.57129	2235.73706	55.24232	897.33075	2207.36108	66.73565	921.66101	1888.80811	103.67886	
9537	47.680	1519.80054	1931.63062	86.71997	1496.28650	2249.15405	51.52547	1294.82190	2235.80396	54.90119	897.59241	2207.94165	66.56898	921.49158	1889.40283	103.65073	
9538	47.685	1519.80017	1931.39587	86.28957	1496.48828	2248.95044	51.15166	1295.10767	2235.80933	54.58838	897.81763	2208.50513	66.42799	921.41852	1889.98303	103.45761	
9539	47.690	1519.78040	1931.18616	85.84724	1496.94116	2248.80713	50.64145	1295.32373	2235.90991	54.35291	898.03687	2209.11475	66.34788	921.26819	1890.53528	103.31511	
9540	47.695	1519.78638	1930.97925	85.36180	1497.23718	2248.57104	50.38387	1295.60522	2235.96338	54.12394	898.23016	2209.69116	66.36020	921.23981	1891.07837	103.01093	
9541	47.700	1519.69153	1930.78357	84.86030	1497.63953	2248.42773	50.03285	1295.83594	2236.07764	54.02473	898.47119	2210.24683	66.42766	921.14368	1891.65845	102.74747	
9542	47.705	1519.75342	1930.65100	84.13515	1497.95239	2249.16577	48.55056	1296.17139	2236.14673	54.02092	898.71716	2210.82104	66.58701	921.13788	1892.21606	102.32357	
9543	47.710	1519.89294	1930.70215	82.98708	1498.34167	2249.05859	48.20185	1296.46008	2236.24170	54.00848	898.95709	2211.42041	66.78120	921.05157	1892.78076	101.97321	
9544	47.715	1519.95520	1930.57690	82.14281	1498.74548	2249.08594	47.78989	1296.73352	2236.35913	54.09145	899.22687	2212.00586	67.05445	921.08801	1893.35229	101.55642	
9545	47.720	1520.01294	1930.42749	81.43689	1498.88110	2249.22021	47.40516	1296.94568	2236.51318	54.09068	899.52258	2212.64722	67.29471	921.06256	1893.87256	101.25243	
9546	47.725	1520.04175	1930.27173	80.82326	1499.24585	2249.19214	47.22714	1297.25977	2236.61035	54.16233	899.75977	2213.20337	67.55769	921.00903	1894.33911	100.94157	
9547	47.730	1520.00293	1930.21851	80.19228	1499.53638	2249.29443	46.65330	1297.51624	2236.77905	54.17633	900.03149	2213.72729	67.77875	921.02960	1894.86633	100.63450	
9548	47.735	1519.95422	1930.15247	79.58601	1499.93677	2249.08472	46.73901	1297.77209	2236.97607	54.15807	900.24701	2214.25586	67.97767	920.97369	1895.33167	100.39255	
9549	47.740	1519.76697	1930.09387	79.05893	1500.15576	2249.00586	46.62502	1298.02625	2237.15137	54.22522	900.49139	2214.81787	68.21309	920.89752	1895.83008	100.20141	
9550	47.745	1519.66968	1930.04883	78.39327	1500.47388	2248.97192	46.65549	1298.22437	2237.31226	54.22382	900.73322	2215.37305	68.49895	920.81171	1896.28308	99.93814	
9551	47.750	1519.52222	1929.95093	77.82048	1500.60730	2248.93921	46.63032	1298.43237	2237.52368	54.32810	900.94275	2215.91553	68.79602	920.66406	1896.71533	99.71852	
9552	47.755	1519.45288	1929.86255	77.15247	1500.83118	2248.71802	46.98725	1298.62903	2237.74854	54.39737	901.13928	2216.46069	69.07380	920.56561	1897.09717	99.39565	
9553	47.760	1519.24829	1929.76575	76.72624	1500.89014	2248.88525	47.08424	1298.82483	2237.93359	54.48882	901.30585	2216.95825	69.42214	920.34845	1897.47009	99.17032	
9554	47.765	1519.15393	1929.75842	76.08716	1501.13452	2248.57715	47.75736	1299.05420	2238.16797	54.66256	901.45276	2217.38257	69.78220	920.18811	1897.80090	98.84048	
9555	47.770	1518.96094	1929.66394	75.43687	1501.28027	2248.60864	47.94053	1299.17651	2238.38135	54.74074	901.59528	2217.85767	70.20264	920.04340	1898.21716	98.52325	
9556	47.775	1518.86438	1929.63855	74.55335	1501.30103	2248.60474	48.36871	1299.29907	2238.63159	54.83564	901.72028	2218.32837	70.61226	919.85315	1898.53870	98.21975	
9557	47.780	1518.83252	1929.50830	73.86231	1501.40259	2248.51636	48.82108	1299.44604	2238.86841	54.94616	901.88739	2218.78613	71.02700	919.76965	1898.84729	97.87114	
9558	47.785	1518.70850	1929.69470	73.11384	1501.51709	2248.63110	48.68704	1299.57458	2239.10400	55.07282	902.00446	2219.18359	71.38522	919.65411	1899.16626	97.50109	
9559	47.790	1518.61523	1929.76123	72.31046	1501.66199	2248.65283	49.19520	1299.65613	2239.34814	55.08278	902.09491	2219.54492	71.75433	919.63184	1899.51123	97.05917	
9560	47.795	1517.77783	1928.74377	70.88815	1501.80383	2248.79028	48.85203	1299.77478	2239.56104	55.13152	902.22766	2219.94751	72.10251	919.52869	1899.81653	96.67110	
9561	47.800	1517.75635	1928.89417	69.95171	1501.89124	2248.80786	49.18993	1299.87732	2239.76172	55.17606	902.38135	2220.28955	72.47829	919.59741	1900.13464	96.17336	
9562	47.805	1517.79553	1928.76550	69.16297	1502.02832	2249.08032	48.56660	1300.08093	2239.92505	55.31545	902.48712	2220.61060	72.87218	919.59650	1900.40234	95.72229	
9563	47.810	1517.95959	1929.04883	68.33221	1502.06238	2249.40308	48.67389	1300.19995	2240.12646	55.40883	902.61194	2220.93066	73.22874	919.66248	1900.68103	95.24544	
9564	47.815	1517.92688	1929.11487	67.65009	1502.32764	2249.45557	48.42204	1300.30945	2240.34009	55.50905	902.85583	2221.34863	74.27065	919.70728	1900.91614	94.81094	
